<?xml version="1.0" standalone="no"?>
<!DOCTYPE svg PUBLIC "-//W3C//DTD SVG 20010904//EN"
 "http://www.w3.org/TR/2001/REC-SVG-20010904/DTD/svg10.dtd">
<svg version="1.0" xmlns="http://www.w3.org/2000/svg"
 width="300.000000pt" height="300.000000pt" viewBox="0 0 300.000000 300.000000"
 preserveAspectRatio="xMidYMid meet">
<metadata>
Created by potrace 1.10, written by Peter Selinger 2001-2011
</metadata>
<g transform="translate(0.000000,300.000000) scale(0.050000,-0.050000)"
fill="#ffffff" stroke="none">
<path d="M3720 5451 c0 -5 181 -322 402 -705 222 -383 433 -750 469 -816 l66
-120 -469 -810 -469 -810 396 -6 c387 -5 396 -4 425 38 42 61 920 1582 920
1593 0 9 -278 494 -746 1305 l-191 330 -401 5 c-221 3 -402 2 -402 -4z"/>
<path d="M1990 5342 c-88 -53 -439 -256 -780 -452 -341 -195 -631 -366 -645
-379 -20 -18 -25 -118 -20 -416 l5 -393 780 451 c429 248 798 459 820 470 33
15 181 -62 839 -442 439 -254 806 -461 815 -461 9 0 16 178 16 395 l0 395
-415 239 c-228 131 -591 340 -807 465 -452 261 -403 250 -608 128z"/>
<path d="M1416 3675 c-706 -1221 -856 -1485 -856 -1504 0 -12 172 -319 382
-682 210 -362 419 -724 464 -804 l82 -145 405 0 406 0 -132 225 c-72 124 -152
261 -177 305 -25 44 -177 307 -338 585 -161 277 -292 509 -292 515 0 6 66 125
147 265 81 140 284 492 451 781 167 289 309 539 315 555 10 25 -47 29 -387 29
l-397 0 -73 -125z"/>
<path d="M2201 1876 l0 -406 175 -99 c96 -54 452 -260 793 -457 340 -197 629
-362 642 -367 14 -5 262 128 552 295 290 168 653 378 807 467 l280 161 5 407
6 407 -66 -40 c-287 -173 -1550 -891 -1567 -891 -13 0 -148 73 -300 162 -153
89 -476 275 -718 415 -242 139 -478 276 -525 303 l-85 49 1 -406z"/>
</g>
</svg>
